<?xml version="1.0" encoding="UTF-8"?>
<svg id="Layer_2" data-name="Layer 2" xmlns="http://www.w3.org/2000/svg" viewBox="0 0 385.23 193.52">
  <defs>
    <style>
      .cls-1 {
        fill: #fff;
      }

      .cls-2 {
        fill: #6366f1;
      }
    </style>
  </defs>
  <g id="Layer_1-2" data-name="Layer 1">
    <g>
      <g>
        <path class="cls-2" d="M179.91,76.19l-13.94,13.94c-4.01,4.01-10.35,4.66-15.1,1.54.22.17.45.32.69.46.28.18.56.35.86.49.21.11.42.21.63.29.59.28,1.21.51,1.82.66.08.03.18.06.27.07.35.1.69.15,1.04.2.21.04.42.07.63.08.35.04.69.06,1.04.06,2.69,0,5.29-1,7.25-2.95l14.83-14.83v-.03ZM180.74,75.36l-.83.83-13.94,13.94c-4.01,4.01-10.35,4.66-15.1,1.54.22.17.45.32.69.46.28.18.56.35.86.49.21.11.42.21.63.29.59.28,1.21.51,1.82.66.08.03.18.06.27.07.35.1.69.15,1.04.2.21.04.42.07.63.08.35.04.69.06,1.04.06,2.69,0,5.29-1,7.25-2.95l15.66-15.66h0s-.01-.03-.01-.03ZM188.34,73.05l9.01,9.02h.01s-9.02-9.02-9.02-9.02ZM180.74,75.36l-.83.83-13.94,13.94c-4.01,4.01-10.35,4.66-15.1,1.54.22.17.45.32.69.46.28.18.56.35.86.49.21.11.42.21.63.29.59.28,1.21.51,1.82.66.08.03.18.06.27.07.35.1.69.15,1.04.2.21.04.42.07.63.08.35.04.69.06,1.04.06,2.69,0,5.29-1,7.25-2.95l15.66-15.66h0s-.01-.03-.01-.03Z"/>
        <path class="cls-2" d="M283.22,51.46h-.01c-.27-.36-.58-.7-.93-1.05L235.69,3.83c-4.57-4.57-11.69-4.9-15.88-.73l-27.36,27.36-26.64-26.63c-2.44-2.44-5.64-3.83-8.78-3.83h-.01c-2.57,0-4.92.94-6.64,2.67l-47.81,47.8c-2.74,2.74-5.11,5.11-5.12,8.25-.03,2.99,1.92,5.15,5.12,8.35l46.39,46.39c2.27,2.27,5.29,3.52,8.5,3.52,3.21,0,6.23-1.25,8.5-3.52l26.43-26.43,20.79,20.8,2.5,2.47,3.17,3.17c2.27,2.27,5.29,3.52,8.5,3.52h.01c3.2,0,6.21-1.25,8.47-3.52l47.19-47.19c2.75-2.75,4.74-4.74,4.74-7.55s-1.81-4.53-4.56-7.27ZM161,108.5c-1.95,1.95-5.12,1.95-7.07,0l-46.39-46.39c-.72-.73-2.53-2.53-3-3.35.48-.81,2.22-2.55,3-3.34L155.34,7.62c.51-.51,1.19-.6,1.68-.6,1.28,0,2.71.66,3.82,1.77l26.64,26.63-6.74,6.75-23.27-23.29-16.88,16.86,11.66,11.64-6.37,6.37-11.64-11.64-16.67,16.64,31.4,31.4c.35.35.72.67,1.09.95l.14.11c.2.15.38.29.52.38.06.04.1.07.15.1,4.74,3.11,11.08,2.47,15.1-1.54l13.94-13.94.83-.83h.01v.03h.01l6.66,6.66-26.43,26.44ZM175.79,47.12l-29.96,29.97-18.34-18.34,6.73-6.73,11.64,11.64,16.29-16.29-11.64-11.64,6.95-6.94,18.32,18.32ZM278.07,61.32l-47.19,47.19c-.94.94-2.19,1.46-3.52,1.46s-2.6-.52-3.54-1.46l-7.97-7.94-18.5-18.5-9.01-9.02-2.61-2.61h-.01,0s4.84-4.87,4.84-4.87l1.85-1.85h.01s11.63,11.64,11.63,11.64l23.27,23.29,16.6-16.61-11.63-11.64,6.71-6.69,11.63,11.64,18.1-18.1-23.27-23.27-8.31-8.29c-.24-.24-.49-.48-.76-.69-.11-.1-.24-.21-.35-.29t-.03-.03s-.04-.04-.07-.06c-.01-.01-.04-.03-.06-.04-.24-.18-.48-.36-.73-.52-.25-.17-.51-.32-.76-.46-.21-.13-.42-.24-.65-.35-.04-.01-.08-.04-.13-.06-.18-.08-.36-.17-.55-.24-.42-.18-.84-.34-1.28-.45-.21-.07-.42-.13-.63-.17-.22-.07-.45-.11-.67-.14-.17-.03-.35-.06-.52-.07-.13-.03-.27-.04-.39-.04-.04-.01-.07-.01-.11-.01-.03-.01-.06-.01-.1-.01-.08,0-.17-.01-.25-.01-.2-.01-.39-.01-.59-.01-.25,0-.49.01-.74.03-.03,0-.07.01-.1.01-.08,0-.17,0-.25.01-.29.03-.59.07-.88.13-.27.04-.53.11-.79.18-.11.03-.22.06-.34.08-.27.08-.53.18-.8.28-.31.13-.62.25-.91.41-.24.13-.48.25-.7.41-.13.07-.24.14-.35.24-.01.01-.03.01-.04.03-.18.11-.35.24-.52.38l-.03.03s-.04.01-.06.04c-.27.21-.52.43-.76.67l-28.84,28.86-.03-.03-14.14,14.14-1.85,1.88h0s-16.27,16.29-16.27,16.29c-1.23,1.23-3.45,1.16-5.26-.17l-.15-.11-.13-.08s-.01-.01-.03-.01c-.11-.13-.25-.25-.36-.36l-3.37-3.35,32.29-32.29,14.3-14.3,27.34-27.34c1.43-1.42,4.15-1.09,5.96.72l46.59,46.58c.15.15.29.29.41.46l.55.6c.83.81,1.73,1.73,2.23,2.33-.59.73-1.74,1.88-2.43,2.57ZM204.05,65.45l-6.66-6.66,28.84-28.87c1.42-1.42,4.14-1.08,5.95.73l3.34,3.34-31.47,31.47ZM240.48,38.94l18.32,18.31-8.18,8.18-11.63-11.64-16.61,16.61,11.63,11.64-6.69,6.69-18.32-18.32,31.48-31.47Z"/>
      </g>
      <g>
        <g>
          <path class="cls-1" d="M12.18,168.82L0,137.57h13.27l7.1,20.63,6.26-20.63h13.44l6.34,20.29,6.89-20.29h12.22l-12.18,31.25h-13.82l-6.51-19.74-6.3,19.74h-14.54Z"/>
          <path class="cls-1" d="M88.58,136.98c20.16,0,22.77,9.58,22.77,15.5v1.26c0,5.84-2.56,15.67-22.77,15.67h-1.89c-20.25,0-22.81-9.83-22.81-15.67v-1.26c0-5.92,2.56-15.5,22.81-15.5h1.89ZM87.62,145.38c-9.41,0-11.38,4.08-11.38,7.39v.5c0,3.28,2.14,7.69,11.38,7.69s11.38-4.29,11.38-7.6v-.59c0-3.32-2.1-7.39-11.38-7.39Z"/>
          <path class="cls-1" d="M126,168.82h-11.93v-31.25h28.4c9.16,0,13.15,2.94,13.15,8.02v.46c0,4.54-3.95,6.38-6.3,6.97,3.82.88,6.43,3.4,6.43,7.44v4.62c0,2.18.29,2.98.59,3.53v.21h-12.18c-.25-.34-.38-.76-.38-1.64v-3.65c0-3.61-1.64-5.42-6.34-5.42h-11.43v10.71ZM126,150.55h13.69c2.6,0,3.61-1.18,3.61-2.69v-.04c0-1.47-.97-2.65-3.61-2.65h-13.69v5.38Z"/>
          <path class="cls-1" d="M158.76,168.82v-31.25h11.93v12.35l15.38-12.35h14.83l-18.19,14.2,18.78,17.05h-15.54l-15.25-13.99v13.99h-11.93Z"/>
          <path class="cls-1" d="M236.34,137.57v7.65h-22.1v3.91h21.63v7.69h-21.63v12.01h-11.8v-31.25h33.9Z"/>
          <path class="cls-1" d="M251.5,137.57v22.31h21.68v8.95h-33.61v-31.25h11.93Z"/>
          <path class="cls-1" d="M298.67,136.98c20.16,0,22.77,9.58,22.77,15.5v1.26c0,5.84-2.56,15.67-22.77,15.67h-1.89c-20.25,0-22.81-9.83-22.81-15.67v-1.26c0-5.92,2.56-15.5,22.81-15.5h1.89ZM297.7,145.38c-9.41,0-11.38,4.08-11.38,7.39v.5c0,3.28,2.14,7.69,11.38,7.69s11.38-4.29,11.38-7.6v-.59c0-3.32-2.1-7.39-11.38-7.39Z"/>
          <path class="cls-1" d="M331.88,168.82l-12.18-31.25h13.27l7.1,20.63,6.26-20.63h13.44l6.34,20.29,6.89-20.29h12.22l-12.18,31.25h-13.82l-6.51-19.74-6.3,19.74h-14.54Z"/>
        </g>
        <g>
          <path class="cls-1" d="M20.08,191.2h-5.98l-1.01,2.03h-3.23l5.62-10.73h3.23l5.62,10.73h-3.23l-1.01-2.03ZM15.14,189.1h3.92l-1.95-3.95-1.97,3.95Z"/>
          <path class="cls-1" d="M40.64,191.13c-.27.47-.66.89-1.2,1.24s-1.19.63-1.99.84-1.72.31-2.79.31-1.99-.1-2.79-.31-1.46-.49-2-.84-.93-.77-1.2-1.24-.4-.98-.4-1.52v-7.12h2.89v6.08c0,.36.05.7.14,1.02s.26.6.52.84.61.43,1.06.57,1.05.21,1.78.21,1.31-.07,1.77-.21.81-.33,1.06-.57.42-.52.51-.84.13-.66.13-1.02v-6.08h2.9v7.12c0,.54-.13,1.04-.4,1.52Z"/>
          <path class="cls-1" d="M52.86,184.83v8.4h-2.9v-8.4h-4.55v-2.34h12.02v2.34h-4.56Z"/>
          <path class="cls-1" d="M75.59,187.87c0,.92-.17,1.74-.51,2.44s-.82,1.3-1.45,1.77-1.39.83-2.29,1.07-1.91.36-3.03.36-2.13-.12-3.04-.36-1.67-.6-2.31-1.07-1.12-1.06-1.47-1.77-.52-1.52-.52-2.44.17-1.74.52-2.44.83-1.3,1.47-1.77,1.41-.83,2.31-1.07,1.92-.36,3.04-.36,2.13.12,3.03.36,1.66.6,2.29,1.07,1.11,1.06,1.45,1.77.51,1.52.51,2.44ZM72.66,187.87c0-.4-.06-.8-.19-1.2s-.35-.76-.68-1.07-.77-.58-1.33-.77-1.28-.3-2.15-.3c-.58,0-1.1.05-1.54.14s-.83.22-1.15.38-.59.35-.81.57-.39.45-.52.7-.22.5-.28.77-.08.53-.08.79.03.53.08.8.15.53.28.78.3.48.52.69.49.4.81.56.71.28,1.15.38.96.14,1.54.14c.87,0,1.59-.1,2.15-.3s1.01-.46,1.33-.77.55-.68.68-1.07.19-.8.19-1.2Z"/>
          <path class="cls-1" d="M94.4,193.23v-7.54l-3.98,7.54h-2.78l-3.98-7.54v7.54h-2.9v-10.73h3.94l4.34,8.12,4.34-8.12h3.92v10.73h-2.88Z"/>
          <path class="cls-1" d="M111.79,191.2h-5.98l-1.01,2.03h-3.23l5.62-10.73h3.23l5.62,10.73h-3.23l-1.01-2.03ZM106.84,189.1h3.92l-1.95-3.95-1.97,3.95Z"/>
          <path class="cls-1" d="M125.7,184.83v8.4h-2.9v-8.4h-4.55v-2.34h12.02v2.34h-4.56Z"/>
          <path class="cls-1" d="M134.69,193.23v-10.73h2.9v10.73h-2.9Z"/>
          <path class="cls-1" d="M157.36,187.87c0,.92-.17,1.74-.51,2.44s-.82,1.3-1.45,1.77-1.39.83-2.29,1.07-1.91.36-3.03.36-2.13-.12-3.04-.36-1.67-.6-2.31-1.07-1.12-1.06-1.47-1.77-.52-1.52-.52-2.44.17-1.74.52-2.44.83-1.3,1.47-1.77,1.41-.83,2.31-1.07,1.92-.36,3.04-.36,2.13.12,3.03.36,1.66.6,2.29,1.07,1.11,1.06,1.45,1.77.51,1.52.51,2.44ZM154.43,187.87c0-.4-.06-.8-.19-1.2s-.35-.76-.68-1.07-.77-.58-1.33-.77-1.28-.3-2.15-.3c-.58,0-1.1.05-1.54.14s-.83.22-1.15.38-.59.35-.81.57-.39.45-.52.7-.22.5-.28.77-.08.53-.08.79.03.53.08.8.15.53.28.78.3.48.52.69.49.4.81.56.71.28,1.15.38.96.14,1.54.14c.87,0,1.59-.1,2.15-.3s1.01-.46,1.33-.77.55-.68.68-1.07.19-.8.19-1.2Z"/>
          <path class="cls-1" d="M172.66,193.23l-7.24-7.38v7.38h-2.9v-10.73h3.15l7.25,7.41v-7.41h2.88v10.73h-3.14Z"/>
        </g>
        <g>
          <path class="cls-1" d="M218.93,185.52c-.2-.1-.47-.21-.8-.34s-.71-.24-1.13-.36-.88-.21-1.38-.28-1-.11-1.52-.11c-.42,0-.77.01-1.07.04s-.54.06-.74.1-.36.09-.48.14-.21.11-.27.17-.1.11-.12.17-.03.11-.03.16c0,.16.08.29.23.41s.37.22.64.31.59.18.95.26.74.16,1.14.25.82.18,1.25.28.85.22,1.25.36.79.29,1.14.47.67.39.95.63.48.52.64.83.23.67.23,1.07c0,.52-.09.96-.27,1.33s-.43.68-.73.94-.66.46-1.06.61-.82.27-1.26.36-.89.14-1.34.16-.88.04-1.29.04c-1.06,0-2.05-.09-2.95-.26s-1.7-.39-2.39-.65v-2.56c.71.4,1.53.71,2.44.93s1.89.34,2.93.34c.61,0,1.12-.03,1.5-.1s.69-.15.91-.25.37-.21.45-.33.12-.23.12-.34c0-.17-.08-.32-.23-.45s-.37-.24-.64-.34-.59-.18-.95-.27-.74-.16-1.14-.24-.82-.17-1.25-.26-.84-.2-1.25-.33-.79-.28-1.14-.45-.67-.37-.95-.6-.48-.5-.64-.8-.23-.66-.23-1.06c0-.47.08-.88.25-1.23s.39-.64.68-.88.61-.44.98-.59.76-.27,1.18-.35.83-.14,1.25-.17.82-.05,1.2-.05c.42,0,.84.02,1.29.06s.87.1,1.3.18.84.16,1.24.26.77.2,1.11.31v2.48Z"/>
          <path class="cls-1" d="M232.73,184.83v8.4h-2.9v-8.4h-4.55v-2.34h12.02v2.34h-4.56Z"/>
          <path class="cls-1" d="M246.26,193.23h-2.9v-10.73h7.27c.78,0,1.44.08,1.99.24s.99.39,1.33.69.59.66.74,1.07.23.89.23,1.4c0,.45-.06.85-.19,1.19s-.3.63-.52.87-.47.45-.75.61-.59.3-.91.41l3.52,4.24h-3.39l-3.25-3.95h-3.16v3.95ZM251.99,185.88c0-.21-.03-.39-.08-.53s-.15-.26-.29-.36-.32-.16-.54-.2-.51-.06-.85-.06h-3.97v2.3h3.97c.34,0,.62-.02.85-.06s.41-.11.54-.2.23-.21.29-.36.08-.32.08-.53Z"/>
          <path class="cls-1" d="M270.92,191.2h-5.98l-1.01,2.03h-3.23l5.62-10.73h3.23l5.62,10.73h-3.23l-1.01-2.03ZM265.98,189.1h3.92l-1.95-3.95-1.97,3.95Z"/>
          <path class="cls-1" d="M286.46,184.83v8.4h-2.9v-8.4h-4.55v-2.34h12.02v2.34h-4.56Z"/>
          <path class="cls-1" d="M297.09,193.23v-10.73h10.87v2.29h-7.89v1.77h7.48v2.29h-7.48v2.09h8v2.29h-10.98Z"/>
          <path class="cls-1" d="M321.93,182.22c1.05,0,2.03.09,2.93.27s1.73.41,2.49.69v2.62c-.3-.17-.63-.33-1-.48s-.78-.29-1.21-.41-.91-.22-1.41-.29-1.03-.11-1.58-.11c-.69,0-1.29.05-1.8.15s-.95.23-1.31.4-.66.36-.9.58-.42.46-.55.71-.23.5-.28.77-.08.51-.08.76c0,.21.02.45.07.7s.13.5.25.75.29.49.51.72.5.43.86.61.77.32,1.27.43,1.08.16,1.77.16c.34,0,.64-.01.9-.03s.49-.05.7-.09.41-.08.59-.13.38-.11.57-.16v-1.3h-3.25v-2.35h6.15v5.48c-.39.13-.82.25-1.29.36s-.97.2-1.48.27-1.02.13-1.53.18-.99.06-1.45.06c-.7,0-1.38-.05-2.02-.14s-1.25-.24-1.81-.43-1.07-.44-1.53-.75-.85-.66-1.18-1.08-.58-.89-.76-1.43-.27-1.14-.27-1.82.09-1.27.28-1.81.45-1.02.79-1.44.74-.78,1.21-1.08.99-.55,1.55-.75,1.17-.34,1.81-.43,1.31-.14,1.99-.14Z"/>
          <path class="cls-1" d="M334.88,193.23v-10.73h2.9v10.73h-2.9Z"/>
          <path class="cls-1" d="M345.29,193.23v-10.73h10.87v2.29h-7.89v1.77h7.48v2.29h-7.48v2.09h8v2.29h-10.98Z"/>
          <path class="cls-1" d="M373.11,185.52c-.2-.1-.47-.21-.8-.34s-.71-.24-1.13-.36-.88-.21-1.38-.28-1-.11-1.52-.11c-.42,0-.77.01-1.07.04s-.54.06-.74.1-.36.09-.48.14-.21.11-.27.17-.1.11-.12.17-.03.11-.03.16c0,.16.08.29.23.41s.37.22.64.31.59.18.95.26.74.16,1.14.25.82.18,1.25.28.85.22,1.25.36.79.29,1.14.47.67.39.95.63.48.52.64.83.23.67.23,1.07c0,.52-.09.96-.27,1.33s-.43.68-.73.94-.66.46-1.06.61-.82.27-1.26.36-.89.14-1.34.16-.88.04-1.29.04c-1.06,0-2.05-.09-2.95-.26s-1.7-.39-2.39-.65v-2.56c.71.4,1.53.71,2.44.93s1.89.34,2.93.34c.61,0,1.12-.03,1.5-.1s.69-.15.91-.25.37-.21.45-.33.12-.23.12-.34c0-.17-.08-.32-.23-.45s-.37-.24-.64-.34-.59-.18-.95-.27-.74-.16-1.14-.24-.82-.17-1.25-.26-.84-.2-1.25-.33-.79-.28-1.14-.45-.67-.37-.95-.6-.48-.5-.64-.8-.23-.66-.23-1.06c0-.47.08-.88.25-1.23s.39-.64.68-.88.61-.44.98-.59.76-.27,1.18-.35.83-.14,1.25-.17.82-.05,1.2-.05c.42,0,.84.02,1.29.06s.87.1,1.3.18.84.16,1.24.26.77.2,1.11.31v2.48Z"/>
        </g>
        <rect class="cls-2" x="188.82" y="184.07" width="7.59" height="7.59" rx="1.51" ry="1.51" transform="translate(189.26 -81.17) rotate(45)"/>
      </g>
    </g>
  </g>
</svg>