<?xml version="1.0" encoding="UTF-8"?>
<svg id="Layer_2" data-name="Layer 2" xmlns="http://www.w3.org/2000/svg" viewBox="0 0 251.84 207.43">
  <defs>
    <style>
      .cls-1 {
        fill: #ff641e;
      }

      .cls-2 {
        fill: #fff;
      }

      .cls-3 {
        fill: #6366f1;
      }
    </style>
  </defs>
  <g id="Layer_1-2" data-name="Layer 1">
    <g>
      <path class="cls-2" d="M12.35,31.84L.17.59h13.27l7.1,20.63L26.8.59h13.44l6.34,20.29L53.48.59h12.22l-12.18,31.25h-13.82l-6.51-19.74-6.3,19.74h-14.54Z"/>
      <path class="cls-2" d="M89.8,0c20.16,0,22.77,9.58,22.77,15.5v1.26c0,5.84-2.56,15.67-22.77,15.67h-1.89c-20.25,0-22.81-9.83-22.81-15.67v-1.26c0-5.92,2.56-15.5,22.81-15.5h1.89ZM88.83,8.4c-9.41,0-11.38,4.08-11.38,7.39v.5c0,3.28,2.14,7.69,11.38,7.69s11.38-4.29,11.38-7.6v-.59c0-3.32-2.1-7.39-11.38-7.39Z"/>
      <path class="cls-2" d="M128.27,31.84h-11.93V.59h28.4c9.16,0,13.15,2.94,13.15,8.02v.46c0,4.54-3.95,6.39-6.3,6.97,3.82.88,6.43,3.4,6.43,7.44v4.62c0,2.18.29,2.98.59,3.53v.21h-12.18c-.25-.34-.38-.76-.38-1.64v-3.65c0-3.61-1.64-5.42-6.34-5.42h-11.43v10.71ZM128.27,13.57h13.69c2.6,0,3.61-1.18,3.61-2.69v-.04c0-1.47-.97-2.65-3.61-2.65h-13.69v5.38Z"/>
      <path class="cls-2" d="M162.08,31.84V.59h11.93v12.35l15.38-12.35h14.83l-18.19,14.2,18.78,17.06h-15.54l-15.25-13.99v13.99h-11.93Z"/>
      <path class="cls-2" d="M36.59,35.59v7.65H14.49v3.91h21.63v7.69H14.49v12.01H2.69v-31.25h33.9Z"/>
      <path class="cls-2" d="M52.8,35.59v22.31h21.68v8.95h-33.61v-31.25h11.93Z"/>
      <path class="cls-2" d="M101.01,35c20.16,0,22.77,9.58,22.77,15.5v1.26c0,5.84-2.56,15.67-22.77,15.67h-1.89c-20.25,0-22.81-9.83-22.81-15.67v-1.26c0-5.92,2.56-15.5,22.81-15.5h1.89ZM100.05,43.4c-9.41,0-11.38,4.08-11.38,7.39v.5c0,3.28,2.14,7.69,11.38,7.69s11.38-4.29,11.38-7.6v-.59c0-3.32-2.1-7.39-11.38-7.39Z"/>
      <path class="cls-2" d="M135.28,66.84l-12.18-31.25h13.27l7.1,20.63,6.26-20.63h13.44l6.34,20.29,6.89-20.29h12.22l-12.18,31.25h-13.82l-6.51-19.74-6.3,19.74h-14.54Z"/>
      <path class="cls-3" d="M32.35,96.8H14.49l-2.39,5.04H0l15.46-31.25h16.05l16.34,31.25h-13.06l-2.44-5.04ZM23.27,78.23l-5.12,10.75h10.38l-5.25-10.75Z"/>
      <path class="cls-3" d="M46.29,70.59h11.97v13.99c0,3.82,1.68,8.4,9.58,8.4s9.54-4.58,9.54-8.4v-13.99h11.93v14.91c0,6.05-2.86,16.84-20.58,16.84h-1.68c-18.19,0-20.75-10.8-20.75-16.84v-14.91Z"/>
      <path class="cls-3" d="M106.3,79.12h-13.48v-8.53h38.9v8.53h-13.48v22.73h-11.93v-22.73Z"/>
      <path class="cls-3" d="M158.18,70c20.16,0,22.77,9.58,22.77,15.5v1.26c0,5.84-2.56,15.67-22.77,15.67h-1.89c-20.25,0-22.81-9.83-22.81-15.67v-1.26c0-5.92,2.56-15.5,22.81-15.5h1.89ZM157.21,78.4c-9.41,0-11.38,4.08-11.38,7.39v.5c0,3.28,2.14,7.69,11.38,7.69s11.38-4.29,11.38-7.6v-.59c0-3.32-2.1-7.39-11.38-7.39Z"/>
      <path class="cls-3" d="M2.69,105.59h16.38l9.58,17.56,9.75-17.56h15.71v31.25h-11.8v-19.49l-10.96,19.49h-6.09l-10.92-19.49v19.49H2.69v-31.25Z"/>
      <path class="cls-3" d="M88.58,131.8h-17.85l-2.39,5.04h-12.1l15.46-31.25h16.05l16.34,31.25h-13.06l-2.44-5.04ZM79.51,113.23l-5.12,10.75h10.38l-5.25-10.75Z"/>
      <path class="cls-3" d="M112.27,114.12h-13.48v-8.53h38.9v8.53h-13.48v22.73h-11.93v-22.73Z"/>
      <path class="cls-3" d="M153.47,136.84h-11.89v-31.25h11.89v31.25Z"/>
      <path class="cls-3" d="M181.95,105c20.16,0,22.77,9.58,22.77,15.5v1.26c0,5.84-2.56,15.67-22.77,15.67h-1.89c-20.25,0-22.81-9.83-22.81-15.67v-1.26c0-5.92,2.56-15.5,22.81-15.5h1.89ZM180.98,113.4c-9.41,0-11.38,4.08-11.38,7.39v.5c0,3.28,2.14,7.69,11.38,7.69s11.38-4.29,11.38-7.6v-.59c0-3.32-2.1-7.39-11.38-7.39Z"/>
      <path class="cls-3" d="M221.85,105.59l18.15,17.77v-17.77h11.85v31.25h-11.93l-19.58-18.95v18.95h-11.85v-31.25h13.36Z"/>
      <path class="cls-1" d="M1.26,161.34v-.42h13.11c.13,1.68,1.01,4.41,7.81,4.41h.38c6.68,0,7.65-1.43,7.65-2.94v-.04c0-1.55-.76-2.65-7.35-2.81l-5.8-.17c-12.1-.38-15.33-4.54-15.33-9.41v-.38c0-5.08,3.45-9.54,17.98-9.54h3.74c15.46,0,18.99,4.92,18.99,9.87v.34h-12.98c-.13-1.13-.8-3.32-7.56-3.32h-.42c-6.26,0-6.89,1.09-6.89,2.31v.04c0,1.26.92,2.31,6.81,2.39l5.63.13c11.89.29,16.51,3.15,16.51,9.41v.59c0,5.29-2.94,10.63-19.37,10.63h-3.82c-17.26,0-19.07-7.01-19.07-11.09Z"/>
      <path class="cls-1" d="M58.55,149.12h-13.48v-8.53h38.9v8.53h-13.48v22.73h-11.93v-22.73Z"/>
      <path class="cls-1" d="M99.79,171.84h-11.93v-31.25h28.4c9.16,0,13.15,2.94,13.15,8.02v.46c0,4.54-3.95,6.38-6.3,6.97,3.82.88,6.43,3.4,6.43,7.44v4.62c0,2.18.29,2.98.59,3.53v.21h-12.18c-.25-.34-.38-.76-.38-1.64v-3.65c0-3.61-1.64-5.42-6.34-5.42h-11.43v10.71ZM99.79,153.57h13.69c2.6,0,3.61-1.18,3.61-2.69v-.04c0-1.47-.97-2.65-3.61-2.65h-13.69v5.38Z"/>
      <path class="cls-1" d="M163.68,166.8h-17.85l-2.39,5.04h-12.1l15.46-31.25h16.05l16.34,31.25h-13.06l-2.44-5.04ZM154.6,148.23l-5.12,10.75h10.38l-5.25-10.75Z"/>
      <path class="cls-1" d="M15.21,184.12H1.72v-8.53h38.9v8.53h-13.48v22.73h-11.93v-22.73Z"/>
      <path class="cls-1" d="M79.09,175.59v7.65h-22.81v3.91h22.35v7.6h-22.35v4.28h23.15v7.81h-34.91v-31.25h34.57Z"/>
      <path class="cls-1" d="M103.66,207.43c-17.1,0-21.09-9.16-21.09-15.75v-1.18c0-6.72,3.74-15.5,22.14-15.5h1.64c19.11,0,21.8,7.69,21.93,12.06v.04h-12.43c-.25-.76-1.3-3.95-10.12-3.95s-10.8,3.61-10.8,7.73v.46c0,3.99,2.94,7.9,10.71,7.9s10.67-2.9,10.67-3.91h-10.96v-6.09h23.15v17.6h-7.52c-.17-1.05-.88-3.19-1.47-4.33-1.22,1.34-5.12,4.92-14.87,4.92h-.97Z"/>
      <path class="cls-1" d="M144.99,206.84h-11.89v-31.25h11.89v31.25Z"/>
      <path class="cls-1" d="M184.39,175.59v7.65h-22.81v3.91h22.35v7.6h-22.35v4.28h23.15v7.81h-34.91v-31.25h34.57Z"/>
      <path class="cls-1" d="M187.53,196.34v-.42h13.11c.13,1.68,1.01,4.41,7.81,4.41h.38c6.68,0,7.65-1.43,7.65-2.94v-.04c0-1.55-.76-2.65-7.35-2.81l-5.8-.17c-12.1-.38-15.33-4.54-15.33-9.41v-.38c0-5.08,3.45-9.54,17.98-9.54h3.74c15.46,0,18.99,4.92,18.99,9.87v.34h-12.98c-.13-1.13-.8-3.32-7.56-3.32h-.42c-6.26,0-6.89,1.09-6.89,2.31v.04c0,1.26.92,2.31,6.81,2.39l5.63.13c11.89.29,16.51,3.15,16.51,9.41v.59c0,5.29-2.94,10.63-19.37,10.63h-3.82c-17.26,0-19.07-7.01-19.07-11.09Z"/>
    </g>
  </g>
</svg>