<svg width="124" height="60" fill="none" xmlns="http://www.w3.org/2000/svg"><g clip-path="url(#a)"><g clip-path="url(#b)"><path d="M78 39v-6c0-3.6 3.2-3.5 5-3.3v-4c-2.8-.3-4.5.4-5.2 1.9v-2h-3.9v13.5h4ZM94.5 39h2.4l4.1-5 3.5 5h4.6l-5.4-7.7 4.7-5.6h-4.6l-5.4 6.7V19h-4v20ZM49.8 39H53l4.7-8.5L62 39h3.1l7-13.4h-4.6l-4.3 8.5-4-8.5h-3.4l-4.3 8.6-4-8.6H43L49.8 39ZM88.2 23.7c1.3 0 2.4-1 2.4-2.4 0-1.3-1-2.3-2.4-2.3s-2.4 1-2.4 2.3c0 1.4 1 2.4 2.4 2.4ZM90.1 25.7h-3.9V39h4V25.7ZM120.2 34.6c-.5.7-1.5 1.6-3.2 1.6-2 0-3.3-1.1-3.6-2.7H124v-1c0-4-2.8-7-7-7a7 7 0 0 0-7.4 7 7 7 0 0 0 7.3 7c3.2 0 5-1.3 6.3-2.9l-3-2Zm-3.5-6.2c1.8 0 3 1 3.5 2.4h-7c.4-1.4 1.7-2.4 3.5-2.4Z" fill="#ffffff"/><path d="M9.2 26.8a5 5 0 0 1 4.1 1.7l7.3 7.2.4.4V36.4c0 .2-.1.2-.4.5l-5 4.9-.4.3H14.9c-.1 0-.2 0-.4-.3L.2 27.8c-.4-.4-.2-1 .5-1h8.5ZM29.9 18a5 5 0 0 0-4.2 1.7l-7.3 7.2-.3.4V27.6c0 .1 0 .2.3.4l5 5 .4.3H24.1c.2 0 .3-.1.5-.3l14.2-14c.4-.4.3-1-.4-1h-8.5Z" fill="#08CF65"/></g></g><defs><clipPath id="a"><path fill="#fff" d="M0 0h124v60H0z"/></clipPath><clipPath id="b"><path fill="#fff" d="M0 18h124v24.3H0z"/></clipPath></defs></svg>
